<svg width="128" height="128" viewBox="0 0 128 128" fill="none" xmlns="http://www.w3.org/2000/svg">
<g clip-path="url(#clip0_1318_1003)">
<rect width="128" height="128" rx="32" fill="#1F1E24"/>
<path d="M70.0194 92.124C70.0194 93.4667 69.5247 94.6327 68.5354 95.622C67.6167 96.5407 66.5214 97 65.2494 97H28.7854C27.5134 97 26.3827 96.5407 25.3934 95.622C24.4747 94.6327 24.0154 93.4667 24.0154 92.124V30.22C24.0154 28.8067 24.4747 27.6407 25.3934 26.722C26.3827 25.8033 27.5134 25.344 28.7854 25.344H65.2494C66.5214 25.344 67.6167 25.8033 68.5354 26.722C69.5247 27.6407 70.0194 28.8067 70.0194 30.22V33.082C70.0194 34.4247 69.5247 35.5907 68.5354 36.58C67.6167 37.4987 66.5214 37.958 65.2494 37.958H37.9014C37.0534 37.958 36.6294 38.4173 36.6294 39.336V53.434C36.6294 54.4233 37.0534 54.918 37.9014 54.918H61.4334C62.8467 54.918 64.0127 55.3773 64.9314 56.296C65.8501 57.2147 66.3094 58.3453 66.3094 59.688V62.656C66.3094 63.9987 65.8501 65.1647 64.9314 66.154C64.0127 67.0727 62.8467 67.532 61.4334 67.532H37.9014C37.0534 67.532 36.6294 67.956 36.6294 68.804V83.114C36.6294 84.0327 37.0534 84.492 37.9014 84.492H65.2494C66.5214 84.492 67.6167 84.9513 68.5354 85.87C69.5247 86.7887 70.0194 87.9547 70.0194 89.368V92.124Z" fill="white"/>
<path d="M119.375 96.125L110.503 87.2527C109.424 86.1748 107.962 85.5692 106.438 85.5692C104.913 85.5692 103.451 86.1748 102.372 87.2527L76.25 113.375M73.375 61.625H113.625C116.801 61.625 119.375 64.1994 119.375 67.375V107.625C119.375 110.801 116.801 113.375 113.625 113.375H73.375C70.1994 113.375 67.625 110.801 67.625 107.625V67.375C67.625 64.1994 70.1994 61.625 73.375 61.625ZM90.625 78.875C90.625 82.0506 88.0506 84.625 84.875 84.625C81.6994 84.625 79.125 82.0506 79.125 78.875C79.125 75.6994 81.6994 73.125 84.875 73.125C88.0506 73.125 90.625 75.6994 90.625 78.875Z" stroke="#DE8C00" stroke-width="6" stroke-linecap="round" stroke-linejoin="round"/>
</g>
<defs>
<clipPath id="clip0_1318_1003">
<rect width="128" height="128" rx="32" fill="white"/>
</clipPath>
</defs>
</svg>
