<svg width="128" height="128" viewBox="0 0 128 128" fill="none" xmlns="http://www.w3.org/2000/svg">
<g clip-path="url(#clip0_1318_967)">
<rect width="128" height="128" rx="32" fill="#1F1E24"/>
<path d="M70.0194 92.124C70.0194 93.4667 69.5247 94.6327 68.5354 95.622C67.6167 96.5407 66.5214 97 65.2494 97H28.7854C27.5134 97 26.3827 96.5407 25.3934 95.622C24.4747 94.6327 24.0154 93.4667 24.0154 92.124V30.22C24.0154 28.8067 24.4747 27.6407 25.3934 26.722C26.3827 25.8033 27.5134 25.344 28.7854 25.344H65.2494C66.5214 25.344 67.6167 25.8033 68.5354 26.722C69.5247 27.6407 70.0194 28.8067 70.0194 30.22V33.082C70.0194 34.4247 69.5247 35.5907 68.5354 36.58C67.6167 37.4987 66.5214 37.958 65.2494 37.958H37.9014C37.0534 37.958 36.6294 38.4173 36.6294 39.336V53.434C36.6294 54.4233 37.0534 54.918 37.9014 54.918H61.4334C62.8467 54.918 64.0127 55.3773 64.9314 56.296C65.8501 57.2147 66.3094 58.3453 66.3094 59.688V62.656C66.3094 63.9987 65.8501 65.1647 64.9314 66.154C64.0127 67.0727 62.8467 67.532 61.4334 67.532H37.9014C37.0534 67.532 36.6294 67.956 36.6294 68.804V83.114C36.6294 84.0327 37.0534 84.492 37.9014 84.492H65.2494C66.5214 84.492 67.6167 84.9513 68.5354 85.87C69.5247 86.7887 70.0194 87.9547 70.0194 89.368V92.124Z" fill="white"/>
<path d="M65.2033 105.792C65.2033 106.4 64.9953 106.928 64.5793 107.376C64.1633 107.792 63.6353 108 62.9953 108H61.7953C60.8353 108 59.9393 107.76 59.1073 107.28C58.3073 106.8 57.6673 106.16 57.1873 105.36C56.7073 104.528 56.4673 103.632 56.4673 102.672V89.472C56.4673 89.056 56.2593 88.848 55.8433 88.848H48.4513C48.0353 88.848 47.8273 89.056 47.8273 89.472V105.792C47.8273 106.4 47.6033 106.928 47.1553 107.376C46.7393 107.792 46.2273 108 45.6193 108H44.3233C43.7153 108 43.1873 107.792 42.7393 107.376C42.3233 106.928 42.1153 106.4 42.1153 105.792V80.88C42.1153 79.888 42.3553 78.992 42.8353 78.192C43.3153 77.392 43.9553 76.752 44.7553 76.272C45.5553 75.792 46.4513 75.552 47.4433 75.552H52.4353C53.0433 75.552 53.5553 75.776 53.9713 76.224C54.3873 76.64 54.5953 77.152 54.5953 77.76V79.056C54.5953 79.664 54.3873 80.192 53.9713 80.64C53.5553 81.056 53.0433 81.264 52.4353 81.264H48.4513C48.0353 81.264 47.8273 81.472 47.8273 81.888V82.56C47.8273 82.976 48.0353 83.184 48.4513 83.184H55.8433C56.2593 83.184 56.4673 82.976 56.4673 82.56V77.76C56.4673 77.152 56.6753 76.64 57.0913 76.224C57.5393 75.776 58.0673 75.552 58.6753 75.552H59.9713C60.5793 75.552 61.0913 75.776 61.5073 76.224C61.9553 76.64 62.1793 77.152 62.1793 77.76V101.664C62.1793 102.08 62.3873 102.288 62.8033 102.288H62.9953C63.6353 102.288 64.1633 102.512 64.5793 102.96C64.9953 103.376 65.2033 103.888 65.2033 104.496V105.792ZM86.3976 102.624C86.3976 104.128 85.8696 105.408 84.8136 106.464C83.7896 107.488 82.5416 108 81.0696 108H74.3976C72.9256 108 71.6616 107.488 70.6056 106.464C69.5496 105.408 69.0216 104.128 69.0216 102.624V88.512C69.0216 87.52 69.2616 86.624 69.7416 85.824C70.2536 84.992 70.9096 84.336 71.7096 83.856C72.5096 83.376 73.4056 83.136 74.3976 83.136H81.0696C82.0616 83.136 82.9576 83.376 83.7576 83.856C84.5576 84.336 85.1976 84.992 85.6776 85.824C86.1576 86.624 86.3976 87.52 86.3976 88.512V102.624ZM80.7336 101.712V89.52C80.7336 89.328 80.6536 89.168 80.4936 89.04C80.3656 88.912 80.2216 88.848 80.0616 88.848H75.4056C75.2456 88.848 75.0856 88.912 74.9256 89.04C74.7976 89.168 74.7336 89.328 74.7336 89.52V101.712C74.7336 101.872 74.7976 102.016 74.9256 102.144C75.0856 102.272 75.2456 102.336 75.4056 102.336H80.0616C80.2216 102.336 80.3656 102.272 80.4936 102.144C80.6536 102.016 80.7336 101.872 80.7336 101.712ZM107.679 102.624C107.679 104.128 107.151 105.408 106.095 106.464C105.071 107.488 103.823 108 102.351 108H95.6788C94.2068 108 92.9428 107.488 91.8868 106.464C90.8308 105.408 90.3028 104.128 90.3028 102.624V97.392C90.3028 96.4 90.5428 95.52 91.0228 94.752C91.5348 93.952 92.1908 93.312 92.9908 92.832C93.7908 92.352 94.6868 92.112 95.6788 92.112H101.343C101.503 92.112 101.647 92.048 101.775 91.92C101.935 91.792 102.015 91.632 102.015 91.44V89.52C102.015 89.328 101.935 89.168 101.775 89.04C101.647 88.912 101.503 88.848 101.343 88.848H95.6788C95.0708 88.848 94.5428 88.64 94.0948 88.224C93.6788 87.808 93.4708 87.296 93.4708 86.688V85.392C93.4708 84.752 93.6788 84.224 94.0948 83.808C94.5428 83.36 95.0708 83.136 95.6788 83.136H102.351C103.343 83.136 104.239 83.376 105.039 83.856C105.839 84.336 106.479 84.992 106.959 85.824C107.439 86.624 107.679 87.52 107.679 88.512V102.624ZM102.015 101.712V98.4C102.015 98.24 101.935 98.096 101.775 97.968C101.647 97.84 101.503 97.776 101.343 97.776H96.6868C96.5268 97.776 96.3668 97.84 96.2068 97.968C96.0788 98.096 96.0148 98.24 96.0148 98.4V101.712C96.0148 101.872 96.0788 102.016 96.2068 102.144C96.3668 102.272 96.5268 102.336 96.6868 102.336H101.343C101.503 102.336 101.647 102.272 101.775 102.144C101.935 102.016 102.015 101.872 102.015 101.712ZM125.84 105.792C125.84 106.4 125.632 106.928 125.216 107.376C124.8 107.792 124.288 108 123.68 108H116.96C115.488 108 114.224 107.488 113.168 106.464C112.144 105.408 111.632 104.128 111.632 102.624V77.76C111.632 77.12 111.84 76.592 112.256 76.176C112.672 75.76 113.184 75.552 113.792 75.552H115.136C115.744 75.552 116.256 75.76 116.672 76.176C117.12 76.592 117.344 77.12 117.344 77.76V82.56C117.344 82.944 117.552 83.136 117.968 83.136H123.68C124.288 83.136 124.8 83.36 125.216 83.808C125.632 84.224 125.84 84.752 125.84 85.392V86.688C125.84 87.232 125.632 87.744 125.216 88.224C124.736 88.64 124.224 88.848 123.68 88.848H117.968C117.552 88.848 117.344 89.072 117.344 89.52V101.712C117.344 102.128 117.552 102.336 117.968 102.336H123.68C124.288 102.336 124.8 102.544 125.216 102.96C125.632 103.376 125.84 103.904 125.84 104.544V105.792Z" fill="#DE8C00"/>
</g>
<defs>
<clipPath id="clip0_1318_967">
<rect width="128" height="128" rx="32" fill="white"/>
</clipPath>
</defs>
</svg>
