<svg width="128" height="128" viewBox="0 0 128 128" fill="none" xmlns="http://www.w3.org/2000/svg">
<g clip-path="url(#clip0_1318_1000)">
<rect width="128" height="128" rx="32" fill="#1F1E24"/>
<path d="M70.0194 92.124C70.0194 93.4667 69.5247 94.6327 68.5354 95.622C67.6167 96.5407 66.5214 97 65.2494 97H28.7854C27.5134 97 26.3827 96.5407 25.3934 95.622C24.4747 94.6327 24.0154 93.4667 24.0154 92.124V30.22C24.0154 28.8067 24.4747 27.6407 25.3934 26.722C26.3827 25.8033 27.5134 25.344 28.7854 25.344H65.2494C66.5214 25.344 67.6167 25.8033 68.5354 26.722C69.5247 27.6407 70.0194 28.8067 70.0194 30.22V33.082C70.0194 34.4247 69.5247 35.5907 68.5354 36.58C67.6167 37.4987 66.5214 37.958 65.2494 37.958H37.9014C37.0534 37.958 36.6294 38.4173 36.6294 39.336V53.434C36.6294 54.4233 37.0534 54.918 37.9014 54.918H61.4334C62.8467 54.918 64.0127 55.3773 64.9314 56.296C65.8501 57.2147 66.3094 58.3453 66.3094 59.688V62.656C66.3094 63.9987 65.8501 65.1647 64.9314 66.154C64.0127 67.0727 62.8467 67.532 61.4334 67.532H37.9014C37.0534 67.532 36.6294 67.956 36.6294 68.804V83.114C36.6294 84.0327 37.0534 84.492 37.9014 84.492H65.2494C66.5214 84.492 67.6167 84.9513 68.5354 85.87C69.5247 86.7887 70.0194 87.9547 70.0194 89.368V92.124Z" fill="white"/>
<path d="M82.7418 69.576L70.3258 107.016C70.1551 107.571 69.7924 108.04 69.2378 108.424C68.7258 108.808 68.1711 109 67.5738 109H64.9498C64.3524 109 63.7978 108.808 63.2858 108.424C62.8164 108.04 62.4751 107.571 62.2618 107.016L49.8458 69.576C49.5044 68.6373 49.6324 67.7627 50.2298 66.952C50.7844 66.1413 51.5738 65.736 52.5978 65.736H54.4538C55.8618 65.736 56.8004 66.3973 57.2698 67.72L65.9097 94.088C66.1658 94.3867 66.4004 94.3867 66.6138 94.088C67.5098 91.3147 68.4271 88.4773 69.3658 85.576C70.3471 82.632 71.2644 79.88 72.1178 77.32C72.9711 74.7173 73.6751 72.5627 74.2298 70.856L75.2538 67.72C75.4671 67.1227 75.8298 66.6533 76.3418 66.312C76.8964 65.928 77.4724 65.736 78.0698 65.736H79.9258C80.9498 65.736 81.7391 66.1413 82.2938 66.952C82.8911 67.72 83.0404 68.5947 82.7418 69.576ZM117.278 100.552C117.278 102.088 116.894 103.496 116.126 104.776C115.358 106.056 114.334 107.08 113.054 107.848C111.774 108.616 110.366 109 108.83 109H96.5423C95.0063 109 93.5769 108.616 92.2543 107.848C90.9743 107.08 89.9503 106.056 89.1823 104.776C88.4143 103.496 88.0303 102.088 88.0303 100.552V98.632C88.0303 97.8213 88.3076 97.1387 88.8623 96.584C89.4596 95.9867 90.1636 95.688 90.9743 95.688H92.7663C93.5343 95.688 94.1956 95.9867 94.7503 96.584C95.3476 97.1387 95.6463 97.8213 95.6463 98.632V100.552C95.6463 100.765 95.7316 100.979 95.9023 101.192C96.1156 101.363 96.3289 101.448 96.5423 101.448H108.83C109.044 101.448 109.236 101.363 109.406 101.192C109.577 100.979 109.662 100.765 109.662 100.552V92.04C109.662 91.4853 109.385 91.208 108.83 91.208H96.5423C95.7316 91.208 95.0276 90.9307 94.4303 90.376C93.8756 89.7787 93.5983 89.0747 93.5983 88.264V86.472C93.5983 85.6613 93.8756 84.9787 94.4303 84.424C95.0276 83.8693 95.7316 83.592 96.5423 83.592H108.83C109.044 83.592 109.236 83.5067 109.406 83.336C109.577 83.1227 109.662 82.9093 109.662 82.696V74.248C109.662 73.6507 109.385 73.352 108.83 73.352H96.5423C96.3289 73.352 96.1156 73.4373 95.9023 73.608C95.7316 73.7787 95.6463 73.992 95.6463 74.248V75.976C95.6463 76.7867 95.3476 77.4693 94.7503 78.024C94.1956 78.5787 93.5343 78.856 92.7663 78.856H90.9743C90.1636 78.856 89.4596 78.5787 88.8623 78.024C88.3076 77.4693 88.0303 76.7867 88.0303 75.976V74.248C88.0303 72.6693 88.4143 71.24 89.1823 69.96C89.9503 68.68 90.9743 67.656 92.2543 66.888C93.5769 66.12 95.0063 65.736 96.5423 65.736H108.83C110.366 65.736 111.774 66.12 113.054 66.888C114.334 67.656 115.358 68.68 116.126 69.96C116.894 71.24 117.278 72.6693 117.278 74.248V82.696C117.278 83.3787 117.193 84.0613 117.022 84.744C116.852 85.4267 116.617 86.088 116.318 86.728C115.977 87.1547 115.977 87.6027 116.318 88.072C116.617 88.6693 116.852 89.3093 117.022 89.992C117.193 90.6747 117.278 91.3573 117.278 92.04V100.552Z" fill="#DE8C00"/>
</g>
<defs>
<clipPath id="clip0_1318_1000">
<rect width="128" height="128" rx="32" fill="white"/>
</clipPath>
</defs>
</svg>
