<svg width="128" height="128" viewBox="0 0 128 128" fill="none" xmlns="http://www.w3.org/2000/svg">
<g clip-path="url(#clip0_1325_51)">
<rect width="128" height="128" rx="32" fill="#1F1E24"/>
<path d="M70.0194 92.124C70.0194 93.4667 69.5247 94.6327 68.5354 95.622C67.6167 96.5407 66.5214 97 65.2494 97H28.7854C27.5134 97 26.3827 96.5407 25.3934 95.622C24.4747 94.6327 24.0154 93.4667 24.0154 92.124V30.22C24.0154 28.8067 24.4747 27.6407 25.3934 26.722C26.3827 25.8033 27.5134 25.344 28.7854 25.344H65.2494C66.5214 25.344 67.6167 25.8033 68.5354 26.722C69.5247 27.6407 70.0194 28.8067 70.0194 30.22V33.082C70.0194 34.4247 69.5247 35.5907 68.5354 36.58C67.6167 37.4987 66.5214 37.958 65.2494 37.958H37.9014C37.0534 37.958 36.6294 38.4173 36.6294 39.336V53.434C36.6294 54.4233 37.0534 54.918 37.9014 54.918H61.4334C62.8467 54.918 64.0127 55.3773 64.9314 56.296C65.8501 57.2147 66.3094 58.3453 66.3094 59.688V62.656C66.3094 63.9987 65.8501 65.1647 64.9314 66.154C64.0127 67.0727 62.8467 67.532 61.4334 67.532H37.9014C37.0534 67.532 36.6294 67.956 36.6294 68.804V83.114C36.6294 84.0327 37.0534 84.492 37.9014 84.492H65.2494C66.5214 84.492 67.6167 84.9513 68.5354 85.87C69.5247 86.7887 70.0194 87.9547 70.0194 89.368V92.124Z" fill="white"/>
<path d="M106.125 103.45C110.223 100.828 113.362 96.9484 115.069 92.3924C116.776 87.8365 116.961 82.8498 115.595 78.1801C114.229 73.5103 111.387 69.4092 107.493 66.4914C103.6 63.5737 98.8654 61.9966 94 61.9966C89.1346 61.9966 84.4003 63.5737 80.5069 66.4914C76.6135 69.4092 73.7707 73.5103 72.4048 78.1801C71.0389 82.8498 71.2235 87.8365 72.9309 92.3924C74.6383 96.9484 77.7765 100.828 81.875 103.45M84 92.0001C82.6072 90.1429 81.759 87.9346 81.5505 85.6226C81.342 83.3106 81.7815 80.9862 82.8197 78.9099C83.8578 76.8336 85.4537 75.0874 87.4284 73.8669C89.4031 72.6465 91.6786 72.0001 94 72.0001C96.3214 72.0001 98.5969 72.6465 100.572 73.8669C102.546 75.0874 104.142 76.8336 105.18 78.9099C106.219 80.9862 106.658 83.3106 106.449 85.6226C106.241 87.9346 105.393 90.1429 104 92.0001M96.5 84.5001C96.5 85.8808 95.3807 87.0001 94 87.0001C92.6193 87.0001 91.5 85.8808 91.5 84.5001C91.5 83.1193 92.6193 82.0001 94 82.0001C95.3807 82.0001 96.5 83.1193 96.5 84.5001ZM96.5 99.5001C96.5 98.837 96.2366 98.2011 95.7678 97.7323C95.2989 97.2635 94.663 97.0001 94 97.0001C93.337 97.0001 92.7011 97.2635 92.2322 97.7323C91.7634 98.2011 91.5 98.837 91.5 99.5001L92.75 110.75C92.75 111.082 92.8817 111.4 93.1161 111.634C93.3505 111.868 93.6685 112 94 112C94.3315 112 94.6495 111.868 94.8839 111.634C95.1183 111.4 95.25 111.082 95.25 110.75L96.5 99.5001Z" stroke="#DE8C00" stroke-width="4" stroke-linecap="round" stroke-linejoin="round"/>
</g>
<defs>
<clipPath id="clip0_1325_51">
<rect width="128" height="128" rx="32" fill="white"/>
</clipPath>
</defs>
</svg>
