<svg width="128" height="128" viewBox="0 0 128 128" fill="none" xmlns="http://www.w3.org/2000/svg">
<g clip-path="url(#clip0_1318_973)">
<rect width="128" height="128" rx="32" fill="#1F1E24"/>
<path d="M70.0194 92.124C70.0194 93.4667 69.5247 94.6327 68.5354 95.622C67.6167 96.5407 66.5214 97 65.2494 97H28.7854C27.5134 97 26.3827 96.5407 25.3934 95.622C24.4747 94.6327 24.0154 93.4667 24.0154 92.124V30.22C24.0154 28.8067 24.4747 27.6407 25.3934 26.722C26.3827 25.8033 27.5134 25.344 28.7854 25.344H65.2494C66.5214 25.344 67.6167 25.8033 68.5354 26.722C69.5247 27.6407 70.0194 28.8067 70.0194 30.22V33.082C70.0194 34.4247 69.5247 35.5907 68.5354 36.58C67.6167 37.4987 66.5214 37.958 65.2494 37.958H37.9014C37.0534 37.958 36.6294 38.4173 36.6294 39.336V53.434C36.6294 54.4233 37.0534 54.918 37.9014 54.918H61.4334C62.8467 54.918 64.0127 55.3773 64.9314 56.296C65.8501 57.2147 66.3094 58.3453 66.3094 59.688V62.656C66.3094 63.9987 65.8501 65.1647 64.9314 66.154C64.0127 67.0727 62.8467 67.532 61.4334 67.532H37.9014C37.0534 67.532 36.6294 67.956 36.6294 68.804V83.114C36.6294 84.0327 37.0534 84.492 37.9014 84.492H65.2494C66.5214 84.492 67.6167 84.9513 68.5354 85.87C69.5247 86.7887 70.0194 87.9547 70.0194 89.368V92.124Z" fill="white"/>
<path d="M68.4875 70.125L93.5 84.5M93.5 84.5L118.513 70.125M93.5 84.5V113.25M119.375 73C119.374 71.9917 119.108 71.0014 118.603 70.1284C118.099 69.2554 117.373 68.5304 116.5 68.0263L96.375 56.5263C95.5009 56.0216 94.5093 55.7559 93.5 55.7559C92.4907 55.7559 91.4991 56.0216 90.625 56.5263L70.5 68.0263C69.6268 68.5304 68.9014 69.2554 68.3968 70.1284C67.8922 71.0014 67.626 71.9917 67.625 73V96C67.626 97.0084 67.8922 97.9987 68.3968 98.8717C68.9014 99.7447 69.6268 100.47 70.5 100.974L90.625 112.474C91.4991 112.978 92.4907 113.244 93.5 113.244C94.5093 113.244 95.5009 112.978 96.375 112.474L116.5 100.974C117.373 100.47 118.099 99.7447 118.603 98.8717C119.108 97.9987 119.374 97.0084 119.375 96V73Z" stroke="#DE8C00" stroke-width="6" stroke-linecap="round" stroke-linejoin="round"/>
</g>
<defs>
<clipPath id="clip0_1318_973">
<rect width="128" height="128" rx="32" fill="white"/>
</clipPath>
</defs>
</svg>
